<svg width="78" height="49" viewBox="0 0 78 49" fill="none" xmlns="http://www.w3.org/2000/svg">
<path d="M59.2814 39.8016C57.651 39.8086 56.0238 40.7878 54.7937 38.8491C54.3849 38.8507 55.1893 34.9615 54.7744 33.0166C54.3642 33.0189 53.5444 33.0221 53.1341 33.0237C52.7099 30.1129 53.519 27.1958 53.094 24.2811C53.0817 24.1993 53.0656 24.1348 53.0517 24.0609L59.2814 23.9539C57.1977 23.9539 55.1139 23.9516 53.0309 23.95C52.529 21.5379 51.0072 23.2382 50.6008 21.3774C49.3445 19.4411 51.409 18.4611 52.653 18.4556C52.2296 16.5138 53.482 18.4525 53.4735 16.5091C53.4558 12.6231 53.4435 8.73549 51.7554 5.82864C51.3313 4.85734 51.7331 1.94184 51.7231 1.56401e-05C46.6896 0.0228222 41.2043 0.0361891 36.2563 3.9576C32.1651 6.93601 27.0814 2.83371 23.0389 6.10627C22.427 6.60175 21.5853 5.88527 20.8045 5.65404C20.4037 5.53843 20.0834 5.54551 19.7428 5.88606C19.4057 6.22582 19.1005 6.89983 18.8954 8.11967L20.2016 8.09371C19.0533 11.0336 17.4927 8.13382 15.7225 9.23333C15.8602 11.1736 15.917 12.141 15.4321 13.1563C16.5738 13.0525 18.0845 12.0238 19.0046 12.9786L19.0698 15.8893C18.6368 16.3864 18.0637 16.1599 17.4461 15.9452C16.8333 15.7297 16.1645 15.5291 15.6735 16.0584C15.7544 17.0289 15.9156 18.9653 15.9965 19.9334C16.0738 20.9008 15.6152 20.9401 15.144 20.9968C15.6184 20.9354 16.5422 20.8568 16.989 20.8332C17.0401 21.7125 17.1376 23.3853 17.1974 24.4117C16.2535 24.4691 15.3193 24.5603 14.4112 24.7231L17.2127 24.6759C17.2135 24.6861 17.2142 24.7003 17.2152 24.7113C17.2699 25.6842 16.8742 25.7078 16.4803 25.7416C16.6252 27.6787 16.4713 29.6449 16.8832 30.5808C17.2103 30.5533 17.5501 30.5297 17.9043 30.5124C17.2152 31.0346 16.8558 32.5329 16.7936 34.2506C16.7244 35.969 16.9217 37.9038 17.109 39.3486C17.1454 38.3639 17.469 41.2605 17.5131 40.2774C17.459 41.0167 17.4837 41.8087 17.5272 42.5999C17.5669 43.3903 17.6455 44.1783 17.7417 44.8995C17.8045 45.2582 17.815 45.6097 17.8505 45.9346C17.8896 46.2586 17.9534 46.5559 18.0454 46.817C18.0892 47.0584 18.1521 47.4006 18.2637 48.0101C18.1617 48.3766 19.1014 48.5622 21.0153 48.7093C22.8823 48.8469 24.6563 48.9012 26.4845 48.8799C30.1165 48.839 33.7563 48.5095 37.3939 48.0282C44.5781 47.1457 51.7639 45.664 58.8765 44.662C59.6894 43.686 59.2845 41.7465 59.2814 39.8016Z" fill="#EFC5CD"/>
<path d="M9.07604 23.7511C9.20536 23.8392 9.33468 23.9273 9.46362 23.9705C10.4542 24.499 11.2293 25.2037 12.0478 25.9076C13.2102 26.9631 14.0284 28.3268 14.4593 29.9989C14.7173 31.1432 14.5453 32.4189 13.8134 33.7386C13.5978 34.1791 13.3395 34.6627 12.9947 35.0591C12.866 35.2345 12.6507 35.4988 12.4351 35.6749C11.6169 36.4669 10.7124 36.9947 9.72226 37.391C9.24839 37.6545 8.7318 37.6994 8.25786 37.6545C7.87028 37.6545 7.52604 37.6994 7.13839 37.9188C6.79384 38.095 6.49255 38.1823 6.10498 38.3152C5.2005 38.5346 4.42497 38.5786 3.65012 38.4465C2.48763 38.2703 1.36793 37.9188 0.635726 37.1268C-0.0104913 36.4221 -0.182456 35.4988 0.204811 34.2671C0.506405 33.5192 0.893982 32.7713 1.45391 32.0225C1.92747 31.3186 2.48762 30.6147 3.17656 29.9989C3.30581 29.9108 3.39187 29.7354 3.47816 29.6025C3.82209 28.9427 3.99475 28.8105 4.64058 28.8986C4.89922 28.8105 5.07119 28.4149 5.4155 28.547C5.24377 28.6351 5.11422 28.7232 4.85588 28.8554C5.07119 28.8986 5.20051 28.9427 5.2868 28.9427C5.2868 29.1629 5.2868 29.339 5.32944 29.5593C5.37278 29.6914 5.32944 29.8227 5.20051 29.9989C4.94187 30.3512 4.72656 30.7028 4.42497 31.0992C3.99475 31.671 3.69346 32.1987 3.60709 32.8593C3.5208 33.2549 3.5208 33.6065 3.47816 34.0461C3.43482 34.3552 3.56383 34.5747 3.86543 34.6627C4.20974 34.7949 4.64058 34.8381 5.07119 34.7508C5.84634 34.6187 6.66452 34.4425 7.43998 34.091C8.2149 33.7386 9.03339 33.4303 9.80824 33.0347C10.3681 32.7713 10.971 32.4189 11.4876 31.9352C11.8754 31.6269 12.0045 31.2754 11.8754 31.0111C11.5739 29.9989 11.186 29.1196 10.3681 28.459C9.03339 27.3587 7.4827 26.3905 5.93263 25.4672C4.9852 24.8954 4.12368 24.2796 3.30581 23.5749C2.35838 22.8277 1.66952 21.8588 1.15262 20.8474C0.162168 19.1753 1.06664 16.8874 2.44437 15.1713C3.69346 13.5881 5.37278 12.5319 7.09544 11.5637C7.61203 11.3435 8.12892 11.2114 8.60248 10.992C11.2293 10.023 13.6839 9.93572 16.0523 10.1111C16.7845 10.1992 17.4734 10.3321 18.2059 10.4194C18.9808 10.5075 19.713 10.6837 20.2725 11.1241C20.4878 11.2995 20.6174 11.4757 20.4878 11.8272C20.4452 11.9153 20.4452 12.0474 20.4452 12.1355C20.4018 12.3557 20.4018 12.5752 20.3158 12.7954C19.9712 13.5433 19.713 14.2913 19.6696 15.0392C19.627 15.3475 19.4117 15.7872 19.1961 16.1395C19.0241 16.4911 18.7655 16.7553 18.5932 17.0636C18.4209 17.3711 18.2059 17.5913 17.9043 17.7675C17.4304 17.9877 17.0428 18.2072 16.5692 18.3393C16.311 18.4714 16.0523 18.4714 15.8804 18.3393C15.2342 18.075 14.5453 17.9429 13.8564 17.8556C12.4781 17.6786 11.1 17.4592 9.59294 17.5033C9.16202 17.5465 8.68846 17.5913 8.25786 17.7235C7.74127 17.8116 7.2674 17.9429 6.79384 18.031C3.69346 18.8238 5.5021 21.1109 7.0521 22.2552C7.74127 22.6956 8.43052 23.2233 9.07604 23.7511Z" fill="black"/>
<path d="M24.3631 28.8105C24.32 28.7672 24.1911 28.7672 24.1478 28.8986C24.1048 28.8986 24.1048 28.9426 24.1048 28.9866C23.9322 29.4271 23.7172 29.6913 23.3293 29.6025C23.1143 29.8227 23.028 30.0429 22.856 30.2183C22.6838 30.3071 22.4685 30.4833 22.4251 30.7908C22.4251 30.8789 22.3825 30.923 22.3391 31.011C22.1235 31.3186 21.9082 31.5388 21.7363 31.803C21.564 32.2427 21.2627 32.5069 20.9611 32.7712C20.8318 32.9466 20.6165 33.0795 20.4872 33.387C20.4872 33.4303 20.4012 33.5632 20.2722 33.5632C20.0569 33.6064 19.8416 33.7826 19.626 33.9588C19.1522 34.223 18.6788 34.4425 18.1617 34.4873C17.6881 34.4873 17.2575 34.4425 16.8272 34.223C16.138 33.8267 15.8794 33.0795 15.7934 32.1113C15.7934 31.8911 15.7934 31.6709 15.8794 31.4507C15.9654 30.0869 16.2244 28.7232 16.5683 27.3586C16.7839 26.6107 17.0425 25.9508 17.3008 25.291C17.8603 24.1026 18.3343 22.8277 18.8938 21.6393C18.8938 21.5072 18.9372 21.4631 18.9804 21.331C19.2388 20.3188 19.755 19.3514 20.2722 18.4273C20.4445 18.1631 20.5305 17.8996 20.7025 17.5465C20.9178 17.5032 21.1334 17.5032 21.3053 17.6786C21.7796 17.9877 22.2532 18.3392 22.7697 18.6467C22.856 18.6916 22.9854 18.7789 22.9854 18.867C23.2863 19.5268 23.6742 20.1426 23.8462 20.8906C23.9322 21.331 23.9755 21.7266 24.0618 22.167C24.1478 22.6515 24.1048 23.1792 23.8892 23.6189C23.7172 23.9704 23.6309 24.3668 23.4589 24.7192C23.4159 24.9386 23.3293 25.1588 23.2863 25.379C23.028 26.2591 22.7697 27.1384 22.3825 28.0193C22.3825 28.0193 22.3391 28.0633 22.3391 28.1066C22.3391 28.1066 22.3391 28.1506 22.2531 28.2395C22.2098 28.547 22.1235 28.8986 21.9516 29.2517C22.0375 29.2069 22.1235 29.2069 22.1669 29.1628C22.5975 28.6791 23.0713 28.1066 23.5019 27.5788C24.2768 26.6988 24.966 25.8195 25.6982 24.9386C25.9997 24.5871 26.2577 24.3228 26.5163 23.9272C27.3348 22.7829 28.239 21.7707 29.1435 20.7584C29.3154 20.5831 29.4874 20.4509 29.617 20.4069C30.0043 20.2315 30.3919 20.1875 30.6932 20.2315C30.8655 20.3188 30.9947 20.3629 31.081 20.4509C31.4254 20.8033 31.727 21.1997 32.0716 21.5072C32.2869 21.6834 32.4158 21.9468 32.5451 22.2992C32.6311 22.6067 32.7174 22.8709 32.7607 23.2233C32.8467 23.6629 32.8467 24.1026 32.7174 24.5871C32.4158 25.5985 32.1572 26.5234 31.7703 27.4467C31.684 27.8431 31.5116 28.2395 31.4254 28.7232C31.555 28.6791 31.684 28.591 31.727 28.547C32.5885 28.0633 33.3636 27.3586 34.0952 26.5666C34.7847 25.9076 35.5168 25.291 36.2914 24.8513C36.4211 24.8073 36.5073 24.7192 36.636 24.5871C36.8946 24.3668 37.1098 24.4117 37.2823 24.5871C37.4978 24.7624 37.584 25.0707 37.885 25.2037C38.1005 25.291 38.2291 25.5112 38.4015 25.7306C38.3592 26.127 38.3592 26.4793 38.4015 26.8309C38.4015 27.1384 38.3161 27.4467 38.1867 27.7991C37.9281 27.9312 38.1005 28.2827 37.9281 28.503C37.885 29.0307 37.7988 29.5592 37.7126 30.0429C37.6695 30.5266 37.6695 30.9662 37.7126 31.4507C37.7126 31.759 37.7988 31.8911 38.0143 31.9784C38.6601 32.1113 40.8994 30.4833 41.3305 29.9108C42.1056 29.0307 42.7507 28.0193 43.3542 26.963C43.3973 26.7428 43.4835 26.5234 43.6128 26.3905C43.6983 26.5234 43.7421 26.5234 43.6983 26.5666C43.5689 27.2273 43.7852 26.8309 43.6983 27.5788C43.6983 27.4027 43.4835 28.3268 43.3542 28.2395C43.268 28.2395 43.268 28.3708 43.1817 28.4589C42.9239 28.9426 42.6652 29.383 42.4497 29.9108C42.4497 30.0869 42.3204 30.2183 42.2773 30.3071C41.8901 30.5706 41.6314 30.8789 41.3305 31.1864C41.3305 31.3186 41.2011 31.3626 41.1149 31.4066C40.8994 31.8911 39.0912 33.2108 38.617 33.2108C38.4015 33.2108 37.3685 33.1228 37.1529 32.9466C36.7226 32.551 36.0332 32.0673 35.7751 31.4507C35.5595 30.923 35.5595 30.2631 35.7318 29.6025C35.9471 28.503 36.2058 27.4467 36.5933 26.3905C36.6361 26.2591 36.6793 26.0829 36.6793 25.9508C36.7226 25.8627 36.6793 25.8195 36.6793 25.6866C36.4211 25.7306 36.2484 26.0397 36.0332 26.0829C35.8182 26.171 35.6029 26.2591 35.4302 26.3905C35.3876 26.8309 35.3876 26.8309 35.1289 27.2273C34.9567 27.4027 34.8707 27.6237 34.6981 27.8431C34.4831 27.711 34.2678 27.8431 34.0525 28.0193C33.7079 28.3268 33.4063 28.591 33.0187 28.8986C32.9327 28.9866 32.8034 29.0307 32.7174 29.2069C32.3298 29.6913 31.856 30.0429 31.3394 30.4393C31.296 30.5266 31.2101 30.5266 31.1241 30.6587C30.8655 31.1864 30.3492 31.4507 29.9613 31.8911C29.8323 32.0673 29.703 32.2427 29.5307 32.4189C28.8419 32.9906 28.0663 33.2108 27.3348 33.1228C26.9899 33.0795 26.6886 32.8593 26.43 32.551C26.1285 32.2427 25.9997 31.8471 26.0424 31.2305C26.0424 30.7468 26.1285 30.3071 26.301 29.8227C26.9899 27.6237 28.0234 25.6866 29.2721 23.8391C29.5737 23.2673 29.9613 22.7388 30.2626 22.123C30.4352 21.9468 30.5642 21.7266 30.4779 21.4631C30.3492 21.331 30.1766 21.331 30.0043 21.5072C29.9183 21.6393 29.789 21.7266 29.617 21.8587C29.1861 22.2992 28.7556 22.7388 28.325 23.0912C28.0663 23.3995 27.8513 23.6629 27.6788 24.0593C27.4635 24.5871 27.2055 25.0275 26.8606 25.4231C26.473 25.8195 26.1285 26.171 25.8701 26.6107C25.6122 26.963 25.4395 27.3586 25.2243 27.711C25.1379 27.9312 24.966 28.2395 24.8366 28.4589C24.7506 28.591 24.6214 28.7672 24.535 28.8986C24.4924 28.8986 24.4064 28.8105 24.3631 28.8105Z" fill="black"/>
<path d="M47.4871 18.1631C47.4009 18.2952 47.3154 18.3833 47.2723 18.5587C47.2723 18.6035 47.2723 18.6916 47.1861 18.7789C47.0568 18.911 46.9274 19.0872 46.7558 19.3066C46.6696 19.4395 46.3247 19.6157 46.1092 19.6589C46.023 19.6157 45.8937 19.703 45.8082 19.7911C45.5496 19.9672 45.3779 19.9232 45.2047 19.8351C45.0754 19.747 44.99 19.747 44.8606 19.747C44.6882 19.747 44.5589 19.747 44.3865 19.703C44.4303 19.6589 44.4727 19.5716 44.5158 19.5268C44.5158 19.3947 44.602 19.2633 44.6451 19.0872C44.7313 18.867 44.8175 18.7348 44.9468 18.5154C44.9468 18.4273 45.0754 18.3392 45.0754 18.2952C45.0754 18.0309 45.2909 17.8115 45.4202 17.5464C45.5065 17.4151 45.5927 17.283 45.6789 17.1509C45.7651 17.0636 45.8505 16.9755 45.9375 16.9755C46.023 16.9306 46.1092 16.9306 46.1523 16.9755C46.1523 17.0636 46.2385 17.0635 46.3247 17.0195C46.4109 16.9755 46.4533 16.9306 46.4971 16.9755C46.6696 17.0636 46.8843 17.1076 47.0568 17.1509C47.3585 17.283 47.574 17.5032 47.7457 17.8115C47.6164 17.9428 47.5741 18.075 47.4871 18.1631ZM43.5259 22.959C43.5259 22.959 43.5259 22.959 43.5682 22.915C43.6975 22.7388 43.7837 22.6956 43.913 22.6067C44.3865 22.5186 45.4634 21.7266 45.8937 21.9909C46.023 22.167 46.4533 22.3872 46.6265 22.5634C46.7981 22.7829 46.8412 23.0912 46.7119 23.5308C46.4533 24.1026 46.1523 24.6311 45.8082 25.335C45.722 25.5985 45.6358 25.8195 45.5927 25.9948C45.4202 26.3904 45.2478 26.919 45.0331 27.3146C44.8606 27.8431 45.6358 26.171 45.5496 26.6107C45.5496 26.7428 45.4634 26.8749 45.4202 26.963C45.0754 27.8431 45.0754 27.6669 45.0331 28.4589C45.0331 28.8985 44.8606 31.1432 44.9037 31.5388C44.9468 31.8471 45.1193 32.0225 45.2478 32.1986C45.4202 32.2867 45.6358 32.4637 45.8937 32.551C46.1092 32.7271 46.3247 32.6391 46.5826 32.5942C50.1574 31.2753 48.8657 30.7908 50.9325 28.547C51.3197 27.9744 51.7939 27.4467 52.0094 26.7428C52.0094 26.6987 52.0094 26.6988 52.138 26.4793C52.3535 26.919 51.8801 27.5348 52.4828 27.6669C51.5784 29.339 50.9325 31.759 49.4684 32.6391C49.0374 33.2108 46.1092 35.851 44.2148 35.1031C43.6121 35.3225 43.0517 34.7067 42.4058 34.4425C41.9756 34.2671 41.5445 33.9147 41.1573 33.4751C40.9418 32.9025 40.7262 32.2867 40.7262 31.7149C40.64 31.4507 40.64 31.1432 40.64 30.923C40.7693 30.3944 40.6831 29.383 40.8555 29.0307C40.8986 28.8105 40.9849 28.591 40.9849 28.3268C41.0711 28.2827 40.9849 28.0633 41.2866 28.0193C41.3289 28.0193 41.3721 27.8431 41.4152 27.799C41.6307 27.4915 41.6738 27.2273 41.8893 26.919C41.8893 26.919 40.9849 27.8431 41.5014 26.963C41.8462 26.0829 42.6214 25.1148 42.8793 24.499C42.8793 24.4117 42.9655 24.2795 42.9655 24.2795C43.0948 24.0153 43.2241 23.8391 43.1379 23.5308C43.0948 23.3546 43.1379 23.1792 43.2672 22.915C43.3534 22.959 43.3965 23.0031 43.5259 22.959Z" fill="black"/>
<path d="M57.1761 20.8474C58.554 18.6035 58.7695 18.2512 60.0189 15.8312C60.4923 14.9071 60.8795 13.9837 61.3536 13.0596C61.5684 12.3998 61.6977 11.7399 61.7839 11.0793C61.8702 10.8598 61.8702 10.7277 61.6546 10.8158C61.4391 10.8598 61.3105 10.9471 61.1812 11.0352C60.6208 11.2554 60.1043 11.6951 59.7171 12.3109C59.4154 12.6632 59.2006 13.0596 58.8558 13.4112C58.4678 13.8957 58.253 14.3793 58.0806 14.9519C57.8651 15.3915 57.6495 15.9193 57.4348 16.3597C57.133 17.283 56.702 18.2072 56.2717 19.1313C56.0992 19.5717 55.9707 20.0554 55.7983 20.495C55.2817 21.9909 55.4965 21.243 55.0231 22.7389C54.8938 23.0912 54.98 24.1026 55.5396 23.4868C56.1862 22.5187 56.6165 21.8588 57.1761 20.8474ZM64.0663 28.7673C63.8515 29.2069 63.1187 30.1751 63.1187 30.6587C63.0756 30.7028 62.9471 30.8349 62.8601 30.879C62.7315 31.0111 62.6022 31.1865 62.516 31.4067C62.4298 31.6269 62.3005 31.715 62.215 31.8912C61.6115 32.9907 61.2236 33.6065 60.2336 34.5746C59.975 34.7949 57.6926 37.0387 57.521 37.2581C56.2717 38.3152 54.592 37.8307 53.3435 37.8747C52.9986 37.8747 52.6545 37.8307 52.439 37.6993C52.051 37.4791 51.1904 37.1268 50.9318 36.7312C50.5446 35.763 49.5539 35.1032 49.4677 33.7386C49.4246 33.3871 49.2522 33.1668 49.2098 32.8145C49.2522 31.4067 49.4677 29.9989 49.6401 28.547C49.8988 27.5348 50.1135 26.4353 50.286 25.4231C50.7163 23.5309 50.8464 23.3114 51.6638 21.5953C52.0949 20.451 52.4821 20.3629 52.9132 19.2194C53.2142 18.6035 53.5582 17.9877 53.9031 17.4592C54.1617 16.7993 54.592 16.1835 54.98 15.5229C55.7983 14.071 56.702 12.7954 57.6495 11.7399C58.2954 11.0793 58.9851 10.3761 59.6309 9.80358C60.0189 9.49528 60.4061 9.14372 60.7933 9.01159C60.9226 8.9235 61.0519 8.87867 61.1812 8.83542C61.7839 8.79137 62.3443 8.87868 62.7746 9.31989C63.2049 9.7155 63.3343 10.3321 63.2049 11.1673C63.1187 11.6951 63.0756 12.2236 62.9471 12.7073C62.904 13.1029 62.7315 13.4552 62.516 13.8957C62.215 14.6436 61.8702 15.3475 61.3968 16.0514C61.095 16.6232 60.7501 17.1957 60.4492 17.7675C59.9319 18.5587 59.5016 19.3947 58.9851 20.1427C58.0806 21.3751 57.3055 22.6956 56.4872 23.9272C55.1517 26.2592 55.2817 26.6556 54.8076 28.9867C54.6351 29.9108 54.7214 30.4393 54.679 31.3627C54.7214 31.6269 54.8507 33.343 54.8938 33.5192C55.0231 34.135 55.1517 34.3552 55.4103 34.927C55.4965 35.1032 56.0992 35.2345 56.3148 35.3226C56.6165 35.5428 58.8989 33.9588 59.2006 33.7386C59.8896 33.343 60.4492 32.6832 61.0519 32.0673C61.6977 31.4507 61.9995 30.7468 62.5591 29.9108C63.3343 28.8553 63.5929 27.9745 64.4111 26.8309C65.0139 26.7429 64.669 27.667 64.0663 28.7673Z" fill="black"/>
<path d="M67.5533 24.4116C67.4671 24.5429 67.3385 24.7191 67.2516 24.8953C67.0799 25.2036 67.123 25.423 67.3385 25.5551C67.4671 25.6432 67.6395 25.7305 67.7257 25.8627C67.9844 26.171 68.3285 26.1269 68.6733 26.0829C68.9751 25.9948 69.1906 25.6865 69.3622 25.379C69.664 24.631 69.8357 24.4989 70.0943 23.751C70.7832 22.0789 69.4054 22.4753 68.7595 23.003C68.2861 23.3546 67.9413 23.9271 67.5533 24.4116ZM65.1847 29.0306C65.1847 29.0747 65.1847 29.0747 65.1847 29.1195C65.1847 29.0747 65.1847 29.0747 65.1847 29.0306ZM62.1272 27.9311C61.9125 28.635 61.9556 29.2949 62.041 29.9547C62.041 29.9988 62.0849 29.9988 62.1272 30.0428C62.1703 29.5591 62.2142 29.1195 62.2566 28.6791C62.2997 28.3708 62.3428 28.0632 62.2142 27.799C62.1703 27.843 62.1272 27.8871 62.1272 27.9311ZM62.1272 30.7467C62.1703 30.8788 62.2142 30.9662 62.2566 31.0991C62.2566 31.2304 62.3859 31.3185 62.2997 31.4955C62.2565 31.4506 62.2142 31.4506 62.2142 31.4066C61.9987 30.9662 61.9125 30.3944 61.8263 29.8226C61.7831 29.7786 61.8263 29.7353 61.8263 29.6913C61.8263 29.0306 61.8263 28.4148 61.9987 27.7542C62.041 27.6236 62.0849 27.4915 62.0849 27.3585C62.0849 27.2712 62.0849 27.2272 62.0849 27.051C61.9556 27.3145 61.8694 27.4915 61.8263 27.6669C61.7831 27.8871 61.74 28.0632 61.6969 28.2827C61.5245 29.427 61.5676 30.4833 62.041 31.4066C62.1272 31.5828 62.2566 31.7149 62.3859 31.8911C62.4721 31.9784 62.5583 32.0224 62.6876 32.0672C62.6876 32.1113 62.73 32.0672 62.8162 32.0672C62.6876 31.847 62.5583 31.6708 62.4721 31.4506C62.3428 31.1864 62.3428 30.9229 62.2142 30.7027C62.1703 30.7027 62.1272 30.7467 62.1272 30.7467ZM66.2185 26.7868C66.2185 26.8749 66.1323 26.9629 66.0469 27.0062C66.003 27.051 65.9175 27.0951 65.9175 27.2272C65.8737 27.4026 65.8313 27.4466 65.702 27.4915C65.6158 27.5347 65.6158 27.5788 65.5727 27.843C65.6589 27.843 65.702 27.843 65.7451 27.8871C65.7451 27.8871 65.7451 27.8871 65.7451 27.9311C65.6589 27.9311 65.5727 27.9311 65.4434 27.9311C65.4865 27.799 65.4865 27.6669 65.4865 27.5788C65.4434 27.5788 65.4003 27.5788 65.4003 27.5788C65.3579 27.8871 65.3141 28.1946 65.2709 28.5029C65.3579 28.5469 65.4003 28.591 65.4434 28.591C65.4865 28.8985 65.4865 29.1627 65.4865 29.471C65.4865 29.7786 65.5727 30.0428 65.6589 30.263C65.7882 30.4392 66.1323 31.4066 66.2616 31.5828C66.8644 32.1986 67.5964 32.9906 68.2861 33.0346C68.5009 33.0794 69.7502 32.8592 69.965 32.8144C70.9988 32.5069 71.9887 31.9351 72.9363 31.1864C73.6683 30.6146 74.3572 29.9547 75.0901 29.3389C75.1324 29.2949 75.1755 29.2516 75.2186 29.2068C75.4773 28.8985 75.7351 28.635 75.9938 28.3267C76.4679 27.843 76.8982 27.3585 77.2862 26.7868C77.4155 26.5666 77.5448 26.3471 77.8027 26.259C77.7165 26.6554 77.6303 27.0062 77.4586 27.3585C77.4155 27.4915 77.3293 27.6236 77.2431 27.7109C76.9845 28.0192 76.7689 28.2827 76.5973 28.635C76.4679 28.8104 76.2955 28.9866 76.1662 29.1627C76.1231 29.2068 76.08 29.2949 75.9938 29.427C76.1231 29.383 76.2093 29.3389 76.3386 29.2949C76.2955 29.5591 76.08 29.6024 76.0369 29.8226C76.08 29.8674 76.08 29.9107 76.1662 29.9547C76.0369 30.1749 75.9083 30.3071 75.7351 30.4832C75.4773 30.7027 75.2186 30.9661 75.0039 31.2304C74.6159 31.6708 74.1856 32.0224 73.7545 32.3747C73.539 32.5509 73.3673 32.7271 73.1518 32.8592C72.9794 32.9906 72.8077 33.0794 72.6353 33.2108C72.3766 33.3429 72.1188 33.475 71.8601 33.6512C71.4291 33.9147 70.9557 34.1349 70.4823 34.223C70.3529 34.267 70.2236 34.3103 70.0943 34.3551C69.5778 34.5305 69.0613 34.6186 68.544 34.6626C67.9413 34.7507 65.4003 34.267 64.8406 34.046C63.3334 33.4302 63.0317 32.683 62.3428 32.0672C62.0849 31.847 61.8694 31.4955 61.74 31.1431C61.5245 30.5705 61.4814 29.9547 61.4383 29.2949C61.4383 27.9311 61.7831 26.6106 62.3428 25.379C62.4721 25.1147 62.4721 25.1147 62.429 24.7191C62.2142 24.8512 62.0849 24.9385 61.9987 25.2036C61.8694 25.5984 61.6969 25.9507 61.4814 26.3471C61.4814 25.9507 61.6538 25.6865 61.7831 25.379C62.1272 24.587 62.5152 23.839 62.9886 23.1351C63.4628 22.3872 63.9793 21.7265 64.582 21.1107C65.1847 20.4509 65.8313 19.8791 66.5203 19.4394C66.6919 19.3514 66.8213 19.3065 66.9506 19.2192C67.1661 19.1311 67.3816 19.0871 67.5102 19.3065C67.6395 19.4394 67.8119 19.3946 67.8981 19.4835C68.0275 19.5716 68.0698 19.747 68.156 19.835C68.5871 20.0553 70.2236 20.4949 70.6108 20.7584C70.7401 20.8473 70.8263 21.0226 70.9126 21.1996C71.1281 21.5952 71.2997 22.0356 71.6015 22.2991C71.6877 22.3872 71.7308 22.5634 71.7739 22.6955C71.8601 23.2232 71.9025 23.7069 71.7739 24.2795C71.6877 24.8953 71.4291 25.4671 71.1281 25.9948C70.9557 26.3031 70.7832 26.5666 70.6539 26.9189C70.5685 27.2272 70.3953 27.4915 70.2236 27.799C70.0512 28.1505 69.7502 28.3708 69.4485 28.4588C69.1906 28.591 68.8888 28.635 68.6302 28.591C68.5009 28.5469 68.3723 28.591 68.2861 28.4148C68.2861 28.3708 68.243 28.3708 68.243 28.3708C67.8982 28.4148 67.6834 28.0192 67.4247 27.8871C67.3816 27.843 67.3385 27.7109 67.3385 27.6669C67.4247 27.4915 67.3385 27.4026 67.2954 27.2713C67.123 26.9189 66.9506 26.5233 66.7358 26.171C66.6919 26.0396 66.5626 25.9948 66.4341 26.1269C66.391 26.3471 66.2185 26.5233 66.2185 26.7868Z" fill="black"/>
</svg>
