<svg width="111" height="25" viewBox="0 0 111 25" fill="none" xmlns="http://www.w3.org/2000/svg"><path d="M9.288 19.408C8.648 19.408 8.088 19.272 7.608 19C7.144 18.744 6.912 18.288 6.912 17.632C6.912 17.216 7.016 16.752 7.224 16.24C7.512 16.56 7.776 16.784 8.016 16.912C8.272 17.04 8.544 17.104 8.832 17.104C9.632 17.104 10.224 16.656 10.608 15.76C11.008 14.864 11.208 13.872 11.208 12.784C11.208 10.752 10.448 9.736 8.928 9.736C8.496 9.736 8.128 9.76 7.824 9.808L5.856 19H2.4L5.664 3.736L9.216 3.256L8.088 8.584H8.232C8.84 8.584 9.408 8.392 9.936 8.008C10.464 7.608 10.888 7.112 11.208 6.52C11.528 5.912 11.688 5.304 11.688 4.696C11.688 3.96 11.424 3.344 10.896 2.848C10.384 2.352 9.592 2.104 8.52 2.104C7.544 2.104 6.592 2.328 5.664 2.776C4.736 3.208 3.976 3.864 3.384 4.744C2.808 5.624 2.52 6.688 2.52 7.936C2.52 8.528 2.576 8.944 2.688 9.184C2.8 9.408 2.856 9.536 2.856 9.568C2.008 9.568 1.368 9.4 0.936 9.064C0.504 8.712 0.288 8.144 0.288 7.36C0.288 6.272 0.696 5.24 1.512 4.264C2.328 3.288 3.408 2.504 4.752 1.912C6.096 1.304 7.512 0.999999 9 0.999999C10.12 0.999999 11.064 1.176 11.832 1.528C12.6 1.88 13.168 2.344 13.536 2.92C13.92 3.496 14.112 4.128 14.112 4.816C14.112 5.552 13.904 6.264 13.488 6.952C13.072 7.64 12.48 8.2 11.712 8.632C12.672 8.808 13.384 9.256 13.848 9.976C14.312 10.68 14.544 11.52 14.544 12.496C14.544 13.408 14.368 14.4 14.016 15.472C13.68 16.544 13.112 17.472 12.312 18.256C11.528 19.024 10.52 19.408 9.288 19.408ZM18.807 19.144C17.623 19.144 16.703 18.84 16.047 18.232C15.391 17.608 15.063 16.64 15.063 15.328C15.063 14.224 15.279 13.008 15.711 11.68C16.143 10.352 16.847 9.208 17.823 8.248C18.799 7.272 20.039 6.784 21.543 6.784C23.303 6.784 24.183 7.552 24.183 9.088C24.183 9.984 23.927 10.808 23.415 11.56C22.903 12.312 22.223 12.92 21.375 13.384C20.527 13.832 19.623 14.088 18.663 14.152C18.631 14.632 18.615 14.952 18.615 15.112C18.615 15.896 18.751 16.432 19.023 16.72C19.295 16.992 19.735 17.128 20.343 17.128C21.207 17.128 21.943 16.928 22.551 16.528C23.175 16.128 23.855 15.52 24.591 14.704H25.407C23.631 17.664 21.431 19.144 18.807 19.144ZM18.855 13C19.447 12.968 20.007 12.76 20.535 12.376C21.079 11.992 21.511 11.504 21.831 10.912C22.167 10.32 22.335 9.696 22.335 9.04C22.335 8.384 22.135 8.056 21.735 8.056C21.159 8.056 20.591 8.56 20.031 9.568C19.487 10.576 19.095 11.72 18.855 13ZM27.4659 19.144C26.5539 19.144 25.7939 18.832 25.1859 18.208C24.5779 17.584 24.2739 16.608 24.2739 15.28C24.2739 14.096 24.5059 12.856 24.9699 11.56C25.4499 10.248 26.1539 9.144 27.0819 8.248C28.0259 7.336 29.1459 6.88 30.4419 6.88C31.0979 6.88 31.5859 6.992 31.9059 7.216C32.2259 7.44 32.3859 7.736 32.3859 8.104V8.272L32.6499 7H36.1059L34.3779 15.16C34.3139 15.4 34.2819 15.656 34.2819 15.928C34.2819 16.616 34.6099 16.96 35.2659 16.96C35.7139 16.96 36.0979 16.752 36.4179 16.336C36.7539 15.92 37.0179 15.376 37.2099 14.704H38.2179C37.6259 16.432 36.8899 17.608 36.0099 18.232C35.1459 18.84 34.2739 19.144 33.3939 19.144C32.7219 19.144 32.1779 18.96 31.7619 18.592C31.3619 18.208 31.1219 17.656 31.0419 16.936C30.5779 17.592 30.0579 18.128 29.4819 18.544C28.9219 18.944 28.2499 19.144 27.4659 19.144ZM29.0259 16.816C29.4259 16.816 29.8179 16.632 30.2019 16.264C30.6019 15.88 30.8739 15.36 31.0179 14.704L32.1699 9.28C32.1699 9.072 32.0899 8.872 31.9299 8.68C31.7699 8.472 31.5219 8.368 31.1859 8.368C30.5459 8.368 29.9699 8.744 29.4579 9.496C28.9459 10.232 28.5459 11.128 28.2579 12.184C27.9699 13.224 27.8259 14.144 27.8259 14.944C27.8259 15.744 27.9379 16.256 28.1619 16.48C28.4019 16.704 28.6899 16.816 29.0259 16.816ZM39.4748 19.144C38.6588 19.144 38.0508 18.896 37.6508 18.4C37.2668 17.904 37.0747 17.248 37.0747 16.432C37.0747 16.016 37.1227 15.592 37.2188 15.16L38.7548 7.96H37.9628L38.1548 7H38.9468L39.6668 3.688L43.2188 3.208C43.0748 3.816 42.9948 4.176 42.9788 4.288C42.8668 4.736 42.6748 5.64 42.4028 7H43.8428L43.6508 7.96H42.2108L40.6748 15.16C40.5948 15.512 40.5548 15.792 40.5548 16C40.5548 16.576 40.8348 16.864 41.3948 16.864C41.6828 16.864 41.8908 16.84 42.0188 16.792C41.6988 17.72 41.3228 18.344 40.8908 18.664C40.4588 18.984 39.9868 19.144 39.4748 19.144ZM54.9347 19.432C53.9267 19.432 53.0387 19.256 52.2707 18.904C51.5027 18.552 50.9107 18.064 50.4947 17.44C50.0787 16.8 49.8707 16.064 49.8707 15.232C49.8707 14.528 50.0147 13.888 50.3027 13.312C50.6067 12.736 51.0067 12.28 51.5027 11.944C52.0147 11.608 52.5747 11.44 53.1827 11.44C53.7427 11.44 54.2147 11.584 54.5987 11.872C54.9827 12.144 55.2227 12.528 55.3187 13.024C54.4867 13.024 53.8227 13.248 53.3267 13.696C52.8307 14.128 52.5827 14.72 52.5827 15.472C52.5827 16.16 52.7907 16.712 53.2067 17.128C53.6227 17.544 54.1747 17.752 54.8627 17.752C55.7107 17.752 56.4067 17.472 56.9507 16.912C57.5107 16.336 57.7907 15.616 57.7907 14.752C57.7907 14 57.5827 13.288 57.1667 12.616C56.7507 11.944 56.1267 11.128 55.2947 10.168C54.4307 9.176 53.7747 8.328 53.3267 7.624C52.8947 6.904 52.6787 6.12 52.6787 5.272C52.6787 4.44 52.9107 3.696 53.3747 3.04C53.8387 2.368 54.4787 1.84 55.2947 1.456C56.1107 1.072 57.0307 0.879999 58.0547 0.879999C59.3507 0.879999 60.3827 1.184 61.1507 1.792C61.9347 2.4 62.3267 3.216 62.3267 4.24C62.3267 4.912 62.1587 5.456 61.8227 5.872C61.4867 6.288 61.0467 6.496 60.5027 6.496C59.8947 6.496 59.4067 6.248 59.0387 5.752C59.3427 5.528 59.5827 5.232 59.7587 4.864C59.9347 4.496 60.0227 4.112 60.0227 3.712C60.0227 3.2 59.8707 2.792 59.5667 2.488C59.2627 2.184 58.8467 2.032 58.3187 2.032C57.6787 2.032 57.1507 2.264 56.7347 2.728C56.3347 3.176 56.1347 3.752 56.1347 4.456C56.1347 5.096 56.3187 5.696 56.6867 6.256C57.0547 6.8 57.6307 7.504 58.4147 8.368C59.0547 9.056 59.5667 9.648 59.9507 10.144C60.3507 10.64 60.6867 11.216 60.9587 11.872C61.2467 12.512 61.3907 13.208 61.3907 13.96C61.3907 14.984 61.1027 15.912 60.5267 16.744C59.9667 17.576 59.1907 18.232 58.1987 18.712C57.2227 19.192 56.1347 19.432 54.9347 19.432ZM65.6222 19.144C64.7102 19.144 63.9502 18.832 63.3422 18.208C62.7342 17.584 62.4302 16.608 62.4302 15.28C62.4302 14.096 62.6622 12.856 63.1262 11.56C63.6062 10.248 64.3102 9.144 65.2382 8.248C66.1822 7.336 67.3022 6.88 68.5982 6.88C69.2542 6.88 69.7422 6.992 70.0622 7.216C70.3822 7.44 70.5422 7.736 70.5422 8.104V8.272L70.8062 7H74.2622L72.5342 15.16C72.4702 15.4 72.4382 15.656 72.4382 15.928C72.4382 16.616 72.7662 16.96 73.4222 16.96C73.8702 16.96 74.2542 16.752 74.5742 16.336C74.9102 15.92 75.1742 15.376 75.3662 14.704H76.3742C75.7822 16.432 75.0462 17.608 74.1662 18.232C73.3022 18.84 72.4302 19.144 71.5502 19.144C70.8782 19.144 70.3342 18.96 69.9182 18.592C69.5182 18.208 69.2782 17.656 69.1982 16.936C68.7342 17.592 68.2142 18.128 67.6382 18.544C67.0782 18.944 66.4062 19.144 65.6222 19.144ZM67.1822 16.816C67.5822 16.816 67.9742 16.632 68.3582 16.264C68.7582 15.88 69.0302 15.36 69.1742 14.704L70.3262 9.28C70.3262 9.072 70.2462 8.872 70.0862 8.68C69.9262 8.472 69.6782 8.368 69.3422 8.368C68.7022 8.368 68.1262 8.744 67.6142 9.496C67.1022 10.232 66.7022 11.128 66.4142 12.184C66.1262 13.224 65.9822 14.144 65.9822 14.944C65.9822 15.744 66.0942 16.256 66.3182 16.48C66.5582 16.704 66.8462 16.816 67.1822 16.816ZM84.039 19.144C83.063 19.144 82.343 18.888 81.879 18.376C81.431 17.848 81.207 17.2 81.207 16.432C81.207 16.096 81.247 15.72 81.327 15.304C81.407 14.872 81.487 14.456 81.567 14.056C81.663 13.656 81.727 13.4 81.759 13.288C81.887 12.728 82.007 12.176 82.119 11.632C82.231 11.088 82.287 10.648 82.287 10.312C82.287 9.496 81.999 9.088 81.423 9.088C81.007 9.088 80.639 9.296 80.319 9.712C79.999 10.112 79.743 10.64 79.551 11.296L77.919 19H74.463L77.007 7H80.463L80.199 8.248C80.999 7.352 81.935 6.904 83.007 6.904C83.823 6.904 84.471 7.128 84.951 7.576C85.431 8.024 85.671 8.704 85.671 9.616C85.671 10.08 85.615 10.6 85.503 11.176C85.391 11.736 85.231 12.424 85.023 13.24C84.895 13.736 84.775 14.224 84.663 14.704C84.567 15.168 84.519 15.536 84.519 15.808C84.519 16.128 84.591 16.376 84.735 16.552C84.879 16.728 85.127 16.816 85.479 16.816C85.959 16.816 86.343 16.648 86.631 16.312C86.919 15.96 87.207 15.424 87.495 14.704H88.503C87.911 16.464 87.223 17.648 86.439 18.256C85.671 18.848 84.871 19.144 84.039 19.144ZM91.7402 25C90.9722 25 90.3322 24.8 89.8202 24.4C89.3082 24 89.0522 23.424 89.0522 22.672C89.0522 21.76 89.4202 21.024 90.1562 20.464C90.8922 19.92 91.8282 19.464 92.9642 19.096L93.2522 17.824C92.4362 18.704 91.4762 19.144 90.3722 19.144C89.4602 19.144 88.7002 18.832 88.0922 18.208C87.4842 17.584 87.1802 16.608 87.1802 15.28C87.1802 14.096 87.4122 12.856 87.8762 11.56C88.3562 10.248 89.0602 9.144 89.9882 8.248C90.9322 7.336 92.0522 6.88 93.3482 6.88C94.0042 6.88 94.4922 6.992 94.8122 7.216C95.1322 7.44 95.2922 7.736 95.2922 8.104V8.248L95.5562 7H99.0122L96.6362 18.136C97.4042 17.88 98.0202 17.496 98.4842 16.984C98.9482 16.472 99.3402 15.712 99.6602 14.704H100.668C100.236 16.128 99.6522 17.176 98.9162 17.848C98.1802 18.504 97.3482 18.952 96.4202 19.192L96.0602 20.92C95.7402 22.472 95.1882 23.536 94.4042 24.112C93.6202 24.704 92.7322 25 91.7402 25ZM91.9322 16.816C92.3002 16.816 92.6762 16.648 93.0602 16.312C93.4442 15.976 93.7082 15.52 93.8522 14.944L95.0762 9.256C95.0762 9.064 94.9962 8.872 94.8362 8.68C94.6762 8.472 94.4282 8.368 94.0922 8.368C93.4522 8.368 92.8762 8.744 92.3642 9.496C91.8522 10.232 91.4522 11.128 91.1642 12.184C90.8762 13.224 90.7322 14.144 90.7322 14.944C90.7322 15.744 90.8442 16.256 91.0682 16.48C91.3082 16.704 91.5962 16.816 91.9322 16.816ZM91.1882 23.128C91.4602 23.128 91.7242 22.944 91.9802 22.576C92.2362 22.208 92.4362 21.68 92.5802 20.992L92.7242 20.296C91.1562 20.872 90.3722 21.552 90.3722 22.336C90.3722 22.544 90.4442 22.728 90.5882 22.888C90.7322 23.048 90.9322 23.128 91.1882 23.128ZM102.032 19.144C101.264 19.144 100.64 18.904 100.16 18.424C99.6963 17.944 99.4642 17.224 99.4642 16.264C99.4642 15.864 99.5282 15.344 99.6562 14.704L101.288 7H104.744L103.016 15.16C102.968 15.352 102.944 15.552 102.944 15.76C102.944 16.464 103.184 16.816 103.664 16.816C104.112 16.816 104.496 16.632 104.816 16.264C105.136 15.88 105.392 15.36 105.584 14.704L107.216 7H110.672L108.944 15.16C108.88 15.4 108.848 15.656 108.848 15.928C108.848 16.248 108.92 16.48 109.064 16.624C109.224 16.752 109.48 16.816 109.832 16.816C110.088 16.816 110.272 16.8 110.384 16.768C110.512 16.72 110.592 16.688 110.624 16.672C110.56 17.488 110.28 18.104 109.784 18.52C109.288 18.936 108.68 19.144 107.96 19.144C107.288 19.144 106.744 18.944 106.328 18.544C105.928 18.144 105.688 17.584 105.608 16.864C105.064 17.744 104.488 18.344 103.88 18.664C103.288 18.984 102.672 19.144 102.032 19.144Z" fill="black"/></svg>