<svg width="97" height="25" viewBox="0 0 97 25" fill="none" xmlns="http://www.w3.org/2000/svg"><path d="M9.288 19.408C8.648 19.408 8.088 19.272 7.608 19C7.144 18.744 6.912 18.288 6.912 17.632C6.912 17.216 7.016 16.752 7.224 16.24C7.512 16.56 7.776 16.784 8.016 16.912C8.272 17.04 8.544 17.104 8.832 17.104C9.632 17.104 10.224 16.656 10.608 15.76C11.008 14.864 11.208 13.872 11.208 12.784C11.208 10.752 10.448 9.736 8.928 9.736C8.496 9.736 8.128 9.76 7.824 9.808L5.856 19H2.4L5.664 3.736L9.216 3.256L8.088 8.584H8.232C8.84 8.584 9.408 8.392 9.936 8.008C10.464 7.608 10.888 7.112 11.208 6.52C11.528 5.912 11.688 5.304 11.688 4.696C11.688 3.96 11.424 3.344 10.896 2.848C10.384 2.352 9.592 2.104 8.52 2.104C7.544 2.104 6.592 2.328 5.664 2.776C4.736 3.208 3.976 3.864 3.384 4.744C2.808 5.624 2.52 6.688 2.52 7.936C2.52 8.528 2.576 8.944 2.688 9.184C2.8 9.408 2.856 9.536 2.856 9.568C2.008 9.568 1.368 9.4 0.936 9.064C0.504 8.712 0.288 8.144 0.288 7.36C0.288 6.272 0.696 5.24 1.512 4.264C2.328 3.288 3.408 2.504 4.752 1.912C6.096 1.304 7.512 0.999999 9 0.999999C10.12 0.999999 11.064 1.176 11.832 1.528C12.6 1.88 13.168 2.344 13.536 2.92C13.92 3.496 14.112 4.128 14.112 4.816C14.112 5.552 13.904 6.264 13.488 6.952C13.072 7.64 12.48 8.2 11.712 8.632C12.672 8.808 13.384 9.256 13.848 9.976C14.312 10.68 14.544 11.52 14.544 12.496C14.544 13.408 14.368 14.4 14.016 15.472C13.68 16.544 13.112 17.472 12.312 18.256C11.528 19.024 10.52 19.408 9.288 19.408ZM18.807 19.144C17.623 19.144 16.703 18.84 16.047 18.232C15.391 17.608 15.063 16.64 15.063 15.328C15.063 14.224 15.279 13.008 15.711 11.68C16.143 10.352 16.847 9.208 17.823 8.248C18.799 7.272 20.039 6.784 21.543 6.784C23.303 6.784 24.183 7.552 24.183 9.088C24.183 9.984 23.927 10.808 23.415 11.56C22.903 12.312 22.223 12.92 21.375 13.384C20.527 13.832 19.623 14.088 18.663 14.152C18.631 14.632 18.615 14.952 18.615 15.112C18.615 15.896 18.751 16.432 19.023 16.72C19.295 16.992 19.735 17.128 20.343 17.128C21.207 17.128 21.943 16.928 22.551 16.528C23.175 16.128 23.855 15.52 24.591 14.704H25.407C23.631 17.664 21.431 19.144 18.807 19.144ZM18.855 13C19.447 12.968 20.007 12.76 20.535 12.376C21.079 11.992 21.511 11.504 21.831 10.912C22.167 10.32 22.335 9.696 22.335 9.04C22.335 8.384 22.135 8.056 21.735 8.056C21.159 8.056 20.591 8.56 20.031 9.568C19.487 10.576 19.095 11.72 18.855 13ZM27.4659 19.144C26.5539 19.144 25.7939 18.832 25.1859 18.208C24.5779 17.584 24.2739 16.608 24.2739 15.28C24.2739 14.096 24.5059 12.856 24.9699 11.56C25.4499 10.248 26.1539 9.144 27.0819 8.248C28.0259 7.336 29.1459 6.88 30.4419 6.88C31.0979 6.88 31.5859 6.992 31.9059 7.216C32.2259 7.44 32.3859 7.736 32.3859 8.104V8.272L32.6499 7H36.1059L34.3779 15.16C34.3139 15.4 34.2819 15.656 34.2819 15.928C34.2819 16.616 34.6099 16.96 35.2659 16.96C35.7139 16.96 36.0979 16.752 36.4179 16.336C36.7539 15.92 37.0179 15.376 37.2099 14.704H38.2179C37.6259 16.432 36.8899 17.608 36.0099 18.232C35.1459 18.84 34.2739 19.144 33.3939 19.144C32.7219 19.144 32.1779 18.96 31.7619 18.592C31.3619 18.208 31.1219 17.656 31.0419 16.936C30.5779 17.592 30.0579 18.128 29.4819 18.544C28.9219 18.944 28.2499 19.144 27.4659 19.144ZM29.0259 16.816C29.4259 16.816 29.8179 16.632 30.2019 16.264C30.6019 15.88 30.8739 15.36 31.0179 14.704L32.1699 9.28C32.1699 9.072 32.0899 8.872 31.9299 8.68C31.7699 8.472 31.5219 8.368 31.1859 8.368C30.5459 8.368 29.9699 8.744 29.4579 9.496C28.9459 10.232 28.5459 11.128 28.2579 12.184C27.9699 13.224 27.8259 14.144 27.8259 14.944C27.8259 15.744 27.9379 16.256 28.1619 16.48C28.4019 16.704 28.6899 16.816 29.0259 16.816ZM39.4748 19.144C38.6588 19.144 38.0508 18.896 37.6508 18.4C37.2668 17.904 37.0747 17.248 37.0747 16.432C37.0747 16.016 37.1227 15.592 37.2188 15.16L38.7548 7.96H37.9628L38.1548 7H38.9468L39.6668 3.688L43.2188 3.208C43.0748 3.816 42.9948 4.176 42.9788 4.288C42.8668 4.736 42.6748 5.64 42.4028 7H43.8428L43.6508 7.96H42.2108L40.6748 15.16C40.5948 15.512 40.5548 15.792 40.5548 16C40.5548 16.576 40.8348 16.864 41.3948 16.864C41.6828 16.864 41.8908 16.84 42.0188 16.792C41.6988 17.72 41.3228 18.344 40.8908 18.664C40.4588 18.984 39.9868 19.144 39.4748 19.144ZM54.9347 19.432C53.9267 19.432 53.0387 19.256 52.2707 18.904C51.5027 18.552 50.9107 18.064 50.4947 17.44C50.0787 16.8 49.8707 16.064 49.8707 15.232C49.8707 14.528 50.0147 13.888 50.3027 13.312C50.6067 12.736 51.0067 12.28 51.5027 11.944C52.0147 11.608 52.5747 11.44 53.1827 11.44C53.7427 11.44 54.2147 11.584 54.5987 11.872C54.9827 12.144 55.2227 12.528 55.3187 13.024C54.4867 13.024 53.8227 13.248 53.3267 13.696C52.8307 14.128 52.5827 14.72 52.5827 15.472C52.5827 16.16 52.7907 16.712 53.2067 17.128C53.6227 17.544 54.1747 17.752 54.8627 17.752C55.7107 17.752 56.4067 17.472 56.9507 16.912C57.5107 16.336 57.7907 15.616 57.7907 14.752C57.7907 14 57.5827 13.288 57.1667 12.616C56.7507 11.944 56.1267 11.128 55.2947 10.168C54.4307 9.176 53.7747 8.328 53.3267 7.624C52.8947 6.904 52.6787 6.12 52.6787 5.272C52.6787 4.44 52.9107 3.696 53.3747 3.04C53.8387 2.368 54.4787 1.84 55.2947 1.456C56.1107 1.072 57.0307 0.879999 58.0547 0.879999C59.3507 0.879999 60.3827 1.184 61.1507 1.792C61.9347 2.4 62.3267 3.216 62.3267 4.24C62.3267 4.912 62.1587 5.456 61.8227 5.872C61.4867 6.288 61.0467 6.496 60.5027 6.496C59.8947 6.496 59.4067 6.248 59.0387 5.752C59.3427 5.528 59.5827 5.232 59.7587 4.864C59.9347 4.496 60.0227 4.112 60.0227 3.712C60.0227 3.2 59.8707 2.792 59.5667 2.488C59.2627 2.184 58.8467 2.032 58.3187 2.032C57.6787 2.032 57.1507 2.264 56.7347 2.728C56.3347 3.176 56.1347 3.752 56.1347 4.456C56.1347 5.096 56.3187 5.696 56.6867 6.256C57.0547 6.8 57.6307 7.504 58.4147 8.368C59.0547 9.056 59.5667 9.648 59.9507 10.144C60.3507 10.64 60.6867 11.216 60.9587 11.872C61.2467 12.512 61.3907 13.208 61.3907 13.96C61.3907 14.984 61.1027 15.912 60.5267 16.744C59.9667 17.576 59.1907 18.232 58.1987 18.712C57.2227 19.192 56.1347 19.432 54.9347 19.432ZM71.4062 19.144C70.4302 19.144 69.7102 18.888 69.2462 18.376C68.7982 17.848 68.5742 17.2 68.5742 16.432C68.5742 16.096 68.6142 15.72 68.6942 15.304C68.7742 14.872 68.8542 14.456 68.9342 14.056C69.0302 13.656 69.0942 13.4 69.1262 13.288C69.2542 12.728 69.3742 12.176 69.4862 11.632C69.5982 11.088 69.6542 10.648 69.6542 10.312C69.6542 9.496 69.3662 9.088 68.7902 9.088C68.3742 9.088 68.0062 9.296 67.6862 9.712C67.3662 10.112 67.1102 10.64 66.9182 11.296L65.2862 19H61.8302L65.3102 2.68L68.8622 2.2L67.5662 8.248C68.3662 7.352 69.3022 6.904 70.3742 6.904C71.1902 6.904 71.8382 7.128 72.3182 7.576C72.7982 8.024 73.0382 8.704 73.0382 9.616C73.0382 10.08 72.9822 10.6 72.8702 11.176C72.7582 11.736 72.5982 12.424 72.3902 13.24C72.2622 13.736 72.1422 14.224 72.0302 14.704C71.9342 15.168 71.8862 15.536 71.8862 15.808C71.8862 16.128 71.9582 16.376 72.1022 16.552C72.2462 16.728 72.4942 16.816 72.8462 16.816C73.3262 16.816 73.7102 16.648 73.9982 16.312C74.2862 15.96 74.5742 15.424 74.8622 14.704H75.8702C75.2782 16.464 74.5902 17.648 73.8062 18.256C73.0382 18.848 72.2382 19.144 71.4062 19.144ZM78.3634 19.096C77.1794 19.096 76.2434 18.792 75.5554 18.184C74.8674 17.576 74.5234 16.616 74.5234 15.304C74.5234 14.216 74.7474 13.008 75.1954 11.68C75.6434 10.352 76.3634 9.208 77.3554 8.248C78.3474 7.272 79.5954 6.784 81.0994 6.784C83.1474 6.784 84.1714 8.064 84.1714 10.624V10.648C84.2194 10.664 84.3074 10.672 84.4354 10.672C84.9634 10.672 85.5714 10.536 86.2594 10.264C86.9474 9.976 87.5714 9.632 88.1314 9.232L88.3474 9.88C87.8834 10.376 87.2754 10.8 86.5234 11.152C85.7874 11.488 84.9794 11.728 84.0994 11.872C83.9714 13.328 83.6434 14.6 83.1154 15.688C82.5874 16.776 81.9074 17.616 81.0754 18.208C80.2434 18.8 79.3394 19.096 78.3634 19.096ZM79.3234 16.936C79.7074 16.936 80.0914 16.72 80.4754 16.288C80.8594 15.84 81.1954 15.24 81.4834 14.488C81.7714 13.72 81.9794 12.872 82.1074 11.944C81.6754 11.848 81.4594 11.512 81.4594 10.936C81.4594 10.28 81.7074 9.848 82.2034 9.64C82.1714 9.112 82.0914 8.752 81.9634 8.56C81.8354 8.352 81.6114 8.248 81.2914 8.248C80.7634 8.248 80.2514 8.632 79.7554 9.4C79.2594 10.168 78.8594 11.088 78.5554 12.16C78.2514 13.232 78.0994 14.176 78.0994 14.992C78.0994 15.76 78.1874 16.28 78.3634 16.552C78.5394 16.808 78.8594 16.936 79.3234 16.936ZM87.2303 6.112H90.6863L90.3023 7.912C91.1023 7.224 92.0383 6.88 93.1103 6.88C94.0063 6.88 94.7183 7.176 95.2463 7.768C95.7743 8.36 96.0383 9.328 96.0383 10.672C96.0383 11.936 95.8543 13.216 95.4863 14.512C95.1183 15.792 94.4943 16.888 93.6143 17.8C92.7343 18.696 91.5743 19.144 90.1343 19.144C89.1103 19.144 88.4303 18.856 88.0943 18.28L86.8463 24.136L83.2222 25L87.2303 6.112ZM89.3903 17.056C90.1583 17.056 90.7903 16.696 91.2863 15.976C91.7983 15.256 92.1663 14.4 92.3903 13.408C92.6303 12.4 92.7503 11.464 92.7503 10.6C92.7503 9.272 92.3503 8.608 91.5503 8.608C91.2623 8.608 90.9663 8.712 90.6623 8.92C90.3743 9.128 90.1183 9.416 89.8943 9.784L88.4783 16.504C88.6063 16.872 88.9103 17.056 89.3903 17.056Z" fill="white"/></svg>